<?xml version="1.0" encoding="UTF-8"?>
<svg xmlns="http://www.w3.org/2000/svg" xmlns:xlink="http://www.w3.org/1999/xlink" width="64pt" height="64pt" viewBox="0 0 64 64" version="1.1">
<g id="surface26649010">
<path style=" stroke:none;fill-rule:nonzero;fill:rgb(0.784314%,74.509804%,89.803922%);fill-opacity:1;" d="M 41.449219 7.449219 C 40.851562 7.550781 40.300781 7.800781 39.800781 8.101562 C 40.300781 7.800781 40.898438 7.550781 41.449219 7.449219 Z M 41.449219 7.449219 "/>
<path style=" stroke:none;fill-rule:nonzero;fill:rgb(100%,100%,100%);fill-opacity:1;" d="M 8.550781 56.550781 L 26.550781 52.550781 C 27.398438 52.351562 28.199219 51.898438 28.800781 51.300781 L 55.25 24.851562 C 57.050781 23.050781 57.050781 20.148438 55.25 18.351562 L 45.550781 8.699219 C 43.75 6.898438 40.851562 6.898438 39.050781 8.699219 L 12.601562 35.148438 C 12 35.75 11.550781 36.550781 11.351562 37.398438 L 7.449219 55.449219 C 7.199219 56.101562 7.898438 56.800781 8.550781 56.550781 "/>
<path style=" stroke:none;fill-rule:nonzero;fill:rgb(100%,100%,100%);fill-opacity:1;" d="M 52.050781 28.148438 L 55.300781 24.898438 C 57.101562 23.101562 57.101562 20.199219 55.300781 18.398438 L 45.601562 8.648438 C 43.800781 6.851562 40.898438 6.851562 39.101562 8.648438 L 35.851562 11.898438 L 52.050781 28.148438 "/>
<path style=" stroke:none;fill-rule:nonzero;fill:rgb(0.784314%,74.509804%,89.803922%);fill-opacity:1;" d="M 20.800781 43.199219 L 12.699219 35.101562 L 35.851562 11.949219 L 52.050781 28.148438 L 28.898438 51.300781 L 20.800781 43.199219 "/>
<path style=" stroke:none;fill-rule:nonzero;fill:rgb(0.784314%,74.509804%,89.803922%);fill-opacity:1;" d="M 20.800781 43.199219 L 43.949219 20.050781 L 52.050781 28.148438 L 28.898438 51.300781 L 20.800781 43.199219 "/>
<path style=" stroke:none;fill-rule:nonzero;fill:rgb(90.588235%,90.588235%,90.588235%);fill-opacity:1;" d="M 25.648438 48.101562 C 25 48.75 24.25 49.25 23.300781 49.398438 L 10.199219 53.800781 L 7.449219 55.398438 L 7.449219 55.5 C 7.25 56.050781 7.699219 56.648438 8.25 56.648438 C 8.25 56.648438 8.25 56.648438 8.300781 56.648438 C 8.398438 56.648438 8.449219 56.648438 8.550781 56.601562 L 26.550781 52.601562 C 27.398438 52.398438 28.199219 51.949219 28.800781 51.351562 L 28.851562 51.300781 L 25.648438 48.101562 M 48.851562 24.898438 L 52 28.101562 L 48.851562 24.898438 M 52.050781 15.199219 C 53.851562 17 53.851562 19.898438 52.050781 21.699219 L 48.851562 24.898438 L 52 28.101562 L 52.050781 28.148438 L 55.300781 24.898438 C 56.199219 24 56.648438 22.851562 56.648438 21.699219 C 56.648438 20.550781 56.199219 19.351562 55.300781 18.449219 L 52.050781 15.199219 "/>
<path style=" stroke:none;fill-rule:nonzero;fill:rgb(0.784314%,74.509804%,89.803922%);fill-opacity:1;" d="M 48.800781 24.898438 L 25.648438 48.101562 L 28.898438 51.300781 L 52.050781 28.148438 L 52 28.101562 L 48.800781 24.898438 "/>
<path style=" stroke:none;fill-rule:nonzero;fill:rgb(65.882353%,69.803922%,77.647059%);fill-opacity:1;" d="M 7.449219 55.449219 L 8.851562 47.75 L 16.351562 55.25 L 8.550781 56.601562 C 7.898438 56.800781 7.199219 56.101562 7.449219 55.449219 Z M 7.449219 55.449219 "/>
<path style=" stroke:none;fill-rule:nonzero;fill:rgb(0.784314%,74.509804%,89.803922%);fill-opacity:1;" d="M 55.898438 24.199219 C 56.25 23.699219 56.449219 23.148438 56.601562 22.550781 C 56.449219 23.101562 56.25 23.699219 55.898438 24.199219 Z M 55.898438 24.199219 "/>
<path style=" stroke:none;fill-rule:nonzero;fill:rgb(0.784314%,74.509804%,89.803922%);fill-opacity:1;" d="M 6.601562 57.398438 C 5.949219 56.75 5.75 55.851562 6 55.050781 L 9.949219 37.101562 C 10.25 35.949219 10.75 34.949219 11.601562 34.148438 L 38 7.648438 C 40.351562 5.300781 44.199219 5.25 46.601562 7.601562 L 56.300781 17.300781 C 58.648438 19.648438 58.648438 23.550781 56.300781 25.949219 L 29.851562 52.398438 C 29.050781 53.199219 28 53.800781 26.898438 54.050781 L 8.949219 58 C 8.148438 58.25 7.25 58.050781 6.601562 57.398438 Z M 44.5 9.75 C 43.300781 8.550781 41.300781 8.550781 40.101562 9.75 L 13.648438 36.199219 C 13.25 36.601562 12.949219 37.101562 12.851562 37.699219 L 9.050781 54.898438 L 26.25 51.101562 C 26.800781 50.949219 27.351562 50.699219 27.75 50.300781 L 54.199219 23.851562 C 55.398438 22.648438 55.398438 20.648438 54.199219 19.449219 Z M 44.5 9.75 "/>
</g>
</svg>
